<?xml version = "1.0" encoding = "utf-8"?>
<svg xmlns = "http://www.w3.org/2000/svg">
  <!-- Icono 1 -->
  <symbol viewBox="0 0 512 512" id="unlock">
    <path fill="currentColor" d="M412.4 232.7h-256V69.8c0-12.9 10.4-23.3 23.3-23.3h139.6c12.8 0 23.3 10.4 23.3 23.3v93.1h46.5V69.8c0-38.6-31.3-69.8-69.8-69.8H179.7c-38.6 0-69.8 31.3-69.8 69.8v162.9H86.6c-12.8 0-23.3 10.4-23.3 23.3v232.7c0 12.9 10.4 23.3 23.3 23.3h325.8c12.8 0 23.3-10.4 23.3-23.3V256c0-12.9-10.5-23.3-23.3-23.3"></path>
  </symbol>
  <!-- Icono 2 -->
  <symbol viewBox="0 0 512 512" id="lock">
    <path fill="currentColor" d="M418.9 232.7h-23.3V69.8c0-38.6-31.3-69.8-69.8-69.8H186.2c-38.6 0-69.8 31.3-69.8 69.8v162.9H93.1c-12.8 0-23.3 10.4-23.3 23.3v232.7c0 12.9 10.4 23.3 23.3 23.3h325.8c12.8 0 23.3-10.4 23.3-23.3V256c0-12.9-10.4-23.3-23.3-23.3m-69.8 0H162.9V69.8c0-12.9 10.4-23.3 23.3-23.3h139.6c12.8 0 23.3 10.4 23.3 23.3z"></path>
  </symbol>
  <!-- Icono 3 -->
  <symbol viewBox="0 0 24 24" id="star">
    <path fill="currentColor" d="m19.555 23.411l-6.664-3.285a1.26 1.26 0 0 0-1.202.045l.006-.003l-6.416 3.75a.61.61 0 0 1-.902-.626v.003l.994-7.542a1.25 1.25 0 0 0-.392-1.082l-.001-.001l-4.571-4.247a1.265 1.265 0 0 1 .648-2.17l.007-.001l5.987-1.108c.421-.078.765-.355.935-.727l.003-.008L10.478.746a1.272 1.272 0 0 1 2.271-.087l.003.007l2.881 5.471c.197.365.558.62.981.666h.006l6.045.681a1.265 1.265 0 0 1 .811 2.119l.001-.001l-4.27 4.562a1.25 1.25 0 0 0-.315 1.116l-.001-.008l1.52 7.453a.61.61 0 0 1-.86.683l.004.002z"></path>
  </symbol>
  <!-- Icono 4 -->
  <symbol viewBox="0 0 24 24" id="close_a">
    <path fill="currentColor" d="m8.4 17l3.6-3.6l3.6 3.6l1.4-1.4l-3.6-3.6L17 8.4L15.6 7L12 10.6L8.4 7L7 8.4l3.6 3.6L7 15.6zm3.6 5q-2.075 0-3.9-.788t-3.175-2.137T2.788 15.9T2 12t.788-3.9t2.137-3.175T8.1 2.788T12 2t3.9.788t3.175 2.137T21.213 8.1T22 12t-.788 3.9t-2.137 3.175t-3.175 2.138T12 22m0-2q3.35 0 5.675-2.325T20 12t-2.325-5.675T12 4T6.325 6.325T4 12t2.325 5.675T12 20m0-8"></path>
  </symbol>
  <!-- Icono 5 -->
  <symbol viewBox="0 0 24 24" id="close_b">
    <path fill="currentColor" d="m8.4 17l3.6-3.6l3.6 3.6l1.4-1.4l-3.6-3.6L17 8.4L15.6 7L12 10.6L8.4 7L7 8.4l3.6 3.6L7 15.6zm3.6 5q-2.075 0-3.9-.788t-3.175-2.137T2.788 15.9T2 12t.788-3.9t2.137-3.175T8.1 2.788T12 2t3.9.788t3.175 2.137T21.213 8.1T22 12t-.788 3.9t-2.137 3.175t-3.175 2.138T12 22"></path>
  </symbol>
</svg>
