<?xml version = "1.0" encoding = "utf-8"?>
<svg xmlns = "http://www.w3.org/2000/svg">
  <!-- Home icon -->
  <symbol viewBox="0 0 24 24" id="home-app">
    <path fill="currentColor" d="M4.5 21q-.625 0-1.062-.437T3 19.5v-1.9l4-3.55V21zM8 21v-4h8v4zm9 0v-8.2L12.725 9l3.025-2.675l4.75 4.225q.25.225.375.513t.125.612V19.5q0 .625-.437 1.063T19.5 21zM3 16.25v-4.575q0-.325.125-.625t.375-.5L11 3.9q.2-.2.463-.287T12 3.525t.538.088T13 3.9l2 1.775z"></path>
  </symbol>
  <!-- Factura icon -->
  <symbol viewBox="0 0 24 24" id="add-factura">
    <path fill="currentColor" d="M7 17h2v-7H7zm4 0h2V7h-2zm4 0h2v-4h-2zm2-8V7h-2V5h2V3h2v2h2v2h-2v2zM3 21V3h11v7h7v11z"></path>
  </symbol>
  <!-- Exit door icon -->
  <symbol viewBox="0 0 24 24" id="door-exit">
    <g fill="none">
      <path fill="currentColor" fill-rule="evenodd" d="M10.138 1.815A3 3 0 0 1 14 4.688v14.624a3 3 0 0 1-3.862 2.873l-6-1.8A3 3 0 0 1 2 17.512V6.488a3 3 0 0 1 2.138-2.873zM15 4a1 1 0 0 1 1-1h3a3 3 0 0 1 3 3v1a1 1 0 1 1-2 0V6a1 1 0 0 0-1-1h-3a1 1 0 0 1-1-1m6 12a1 1 0 0 1 1 1v1a3 3 0 0 1-3 3h-3a1 1 0 1 1 0-2h3a1 1 0 0 0 1-1v-1a1 1 0 0 1 1-1M9 11a1 1 0 1 0 0 2h.001a1 1 0 1 0 0-2z" clip-rule="evenodd"></path>
      <path stroke="currentColor" stroke-linecap="round" stroke-linejoin="round" stroke-width="2" d="M16 12h5m0 0l-2-2m2 2l-2 2"></path>
    </g>
  </symbol>
  <!-- Next page icon -->
  <symbol viewBox="0 0 24 24" id="right-page">
    <path fill="currentColor" d="m12 16l4-4l-4-4l-1.4 1.4l1.6 1.6H8v2h4.2l-1.6 1.6zm0 6q-2.075 0-3.9-.788t-3.175-2.137T2.788 15.9T2 12t.788-3.9t2.137-3.175T8.1 2.788T12 2t3.9.788t3.175 2.137T21.213 8.1T22 12t-.788 3.9t-2.137 3.175t-3.175 2.138T12 22m0-2q3.35 0 5.675-2.325T20 12t-2.325-5.675T12 4T6.325 6.325T4 12t2.325 5.675T12 20m0-8"></path>
  </symbol>
  <!-- Previous page icon -->
  <symbol viewBox="0 0 24 24" id="left-page">
    <path fill="currentColor" d="M11.8 13H15q.425 0 .713-.288T16 12t-.288-.712T15 11h-3.2l.9-.9q.275-.275.275-.7t-.275-.7t-.7-.275t-.7.275l-2.6 2.6q-.3.3-.3.7t.3.7l2.6 2.6q.275.275.7.275t.7-.275t.275-.7t-.275-.7zm.2 9q-2.075 0-3.9-.788t-3.175-2.137T2.788 15.9T2 12t.788-3.9t2.137-3.175T8.1 2.788T12 2t3.9.788t3.175 2.137T21.213 8.1T22 12t-.788 3.9t-2.137 3.175t-3.175 2.138T12 22"></path>
  </symbol>
  <!-- add product icon -->
  <symbol viewBox="0 0 24 24" id="add">
    <path fill="currentColor" d="M11 17h2v-4h4v-2h-4V7h-2v4H7v2h4zm1 5q-2.075 0-3.9-.788t-3.175-2.137T2.788 15.9T2 12t.788-3.9t2.137-3.175T8.1 2.788T12 2t3.9.788t3.175 2.137T21.213 8.1T22 12t-.788 3.9t-2.137 3.175t-3.175 2.138T12 22"></path>
  </symbol>
  <!-- bill icon -->
  <symbol viewBox="0 0 24 24" id="bill">
    <path fill="currentColor" fill-rule="evenodd" d="M2 1.25a.75.75 0 0 0 0 1.5h2v9.527c0 1.34 0 2.01.268 2.601s.772 1.032 1.781 1.915l2 1.75c1.883 1.647 2.824 2.47 3.951 2.47s2.069-.823 3.951-2.47l2-1.75c1.008-.883 1.513-1.324 1.78-1.915c.269-.59.269-1.26.269-2.6V2.75h2a.75.75 0 0 0 0-1.5zm6.5 11a.75.75 0 0 0 0 1.5h7a.75.75 0 0 0 0-1.5zM7.75 8a.75.75 0 0 1 .75-.75h7a.75.75 0 0 1 0 1.5h-7A.75.75 0 0 1 7.75 8" clip-rule="evenodd"></path>
  </symbol>
  <!-- delete item -->
  <symbol viewBox="0 0 24 24" id="delete-item">
    <path fill="currentColor" d="M6 19c0 1.1.9 2 2 2h8c1.1 0 2-.9 2-2V7H6zm2.46-7.12l1.41-1.41L12 12.59l2.12-2.12l1.41 1.41L13.41 14l2.12 2.12l-1.41 1.41L12 15.41l-2.12 2.12l-1.41-1.41L10.59 14zM15.5 4l-1-1h-5l-1 1H5v2h14V4z"></path>
  </symbol>
  <!-- edit item -->
  <symbol viewBox="0 0 24 24" id="edit-item">
    <path fill="currentColor" d="M9 15v-4.25l9.175-9.175q.3-.3.675-.45t.75-.15q.4 0 .763.15t.662.45L22.425 3q.275.3.425.663T23 4.4t-.137.738t-.438.662L13.25 15zm10.6-9.2l1.425-1.4l-1.4-1.4L18.2 4.4zM5 21q-.825 0-1.412-.587T3 19V5q0-.825.588-1.412T5 3h8.925L7 9.925V17h7.05L21 10.05V19q0 .825-.587 1.413T19 21z"></path>
  </symbol>
  <!-- bill view -->
  <symbol viewBox="0 0 24 24" id="bill-show">
    <path fill="currentColor" fill-rule="evenodd" d="M7.245 2h9.51c1.159 0 1.738 0 2.206.163a3.05 3.05 0 0 1 1.881 1.936C21 4.581 21 5.177 21 6.37v14.004c0 .858-.985 1.314-1.608.744a.946.946 0 0 0-1.284 0l-.483.442a1.657 1.657 0 0 1-2.25 0a1.657 1.657 0 0 0-2.25 0a1.657 1.657 0 0 1-2.25 0a1.657 1.657 0 0 0-2.25 0a1.657 1.657 0 0 1-2.25 0l-.483-.442a.946.946 0 0 0-1.284 0c-.623.57-1.608.114-1.608-.744V6.37c0-1.193 0-1.79.158-2.27c.3-.913.995-1.629 1.881-1.937C5.507 2 6.086 2 7.245 2M7 6.75a.75.75 0 0 0 0 1.5h.5a.75.75 0 0 0 0-1.5zm3.5 0a.75.75 0 0 0 0 1.5H17a.75.75 0 0 0 0-1.5zM7 10.25a.75.75 0 0 0 0 1.5h.5a.75.75 0 0 0 0-1.5zm3.5 0a.75.75 0 0 0 0 1.5H17a.75.75 0 0 0 0-1.5zM7 13.75a.75.75 0 0 0 0 1.5h.5a.75.75 0 0 0 0-1.5zm3.5 0a.75.75 0 0 0 0 1.5H17a.75.75 0 0 0 0-1.5z" clip-rule="evenodd"></path>
  </symbol>
  <!-- download -->
  <symbol viewBox="0 0 24 24" id="download">
    <path d="M4.996 3h14.012l1.728 2.993l-.006.004c.172.294.27.637.27 1.003v12a2 2 0 0 1-2 2H5a2 2 0 0 1-2-2V7c0-.362.096-.702.264-.994l-.003-.002L4.996 3zm.577 1l-.577 1H19.008l-.578-1H5.573zM7 12l5 5l5-5h-3v-2h-4v2H7z" fill="currentColor"></path>
  </symbol>
  <!-- confirm -->
  <symbol viewBox="0 0 24 24" id="accept">
    <path fill="currentColor" d="m10.6 13.8l-2.15-2.15q-.275-.275-.7-.275t-.7.275t-.275.7t.275.7L9.9 15.9q.3.3.7.3t.7-.3l5.65-5.65q.275-.275.275-.7t-.275-.7t-.7-.275t-.7.275zM12 22q-2.075 0-3.9-.788t-3.175-2.137T2.788 15.9T2 12t.788-3.9t2.137-3.175T8.1 2.788T12 2t3.9.788t3.175 2.137T21.213 8.1T22 12t-.788 3.9t-2.137 3.175t-3.175 2.138T12 22m0-2q3.35 0 5.675-2.325T20 12t-2.325-5.675T12 4T6.325 6.325T4 12t2.325 5.675T12 20m0-8"></path>
  </symbol>
  <!-- error -->
  <symbol viewBox="0 0 16 16" id="error">
    <path fill="currentColor" fill-rule="evenodd" d="M8.6 1c1.6.1 3.1.9 4.2 2c1.3 1.4 2 3.1 2 5.1c0 1.6-.6 3.1-1.6 4.4c-1 1.2-2.4 2.1-4 2.4s-3.2.1-4.6-.7s-2.5-2-3.1-3.5S.8 7.5 1.3 6c.5-1.6 1.4-2.9 2.8-3.8C5.4 1.3 7 .9 8.6 1m.5 12.9c1.3-.3 2.5-1 3.4-2.1c.8-1.1 1.3-2.4 1.2-3.8c0-1.6-.6-3.2-1.7-4.3c-1-1-2.2-1.6-3.6-1.7c-1.3-.1-2.7.2-3.8 1S2.7 4.9 2.3 6.3c-.4 1.3-.4 2.7.2 4q.9 1.95 2.7 3c1.2.7 2.6.9 3.9.6M7.9 7.5L10.3 5l.7.7l-2.4 2.5l2.4 2.5l-.7.7l-2.4-2.5l-2.4 2.5l-.7-.7l2.4-2.5l-2.4-2.5l.7-.7z" clip-rule="evenodd"></path>
  </symbol>
  <!-- search -->
  <symbol viewBox="0 0 24 24" id="search">
    <path fill="currentColor" d="M10 16q2.5 0 4.25-1.75T16 10t-1.75-4.25T10 4T5.75 5.75T4 10t1.75 4.25T10 16m-1-3V6h2v7zm-3.5 0V8h2v5zm7 0V9h2v4zm8.1 9l-5.675-5.675q-1.025.8-2.275 1.238T10 18q-3.35 0-5.675-2.325T2 10t2.325-5.675T10 2t5.675 2.325T18 10q0 1.4-.437 2.65t-1.238 2.275L22 20.6z"></path>
  </symbol>
</svg>
