<?xml version = "1.0" encoding = "utf-8"?>
<svg xmlns = "http://www.w3.org/2000/svg">
  <!-- Home icon -->
  <symbol viewBox="0 0 24 24" id="home-app">
    <path fill="currentColor" d="M4.5 21q-.625 0-1.062-.437T3 19.5v-1.9l4-3.55V21zM8 21v-4h8v4zm9 0v-8.2L12.725 9l3.025-2.675l4.75 4.225q.25.225.375.513t.125.612V19.5q0 .625-.437 1.063T19.5 21zM3 16.25v-4.575q0-.325.125-.625t.375-.5L11 3.9q.2-.2.463-.287T12 3.525t.538.088T13 3.9l2 1.775z"></path>
  </symbol>
  <!-- Factura icon -->
  <symbol viewBox="0 0 24 24" id="add-factura">
    <path fill="currentColor" d="M7 17h2v-7H7zm4 0h2V7h-2zm4 0h2v-4h-2zm2-8V7h-2V5h2V3h2v2h2v2h-2v2zM3 21V3h11v7h7v11z"></path>
  </symbol>
  <!-- Exit door icon -->
  <symbol viewBox="0 0 24 24" id="door-exit">
    <g fill="none">
      <path fill="currentColor" fill-rule="evenodd" d="M10.138 1.815A3 3 0 0 1 14 4.688v14.624a3 3 0 0 1-3.862 2.873l-6-1.8A3 3 0 0 1 2 17.512V6.488a3 3 0 0 1 2.138-2.873zM15 4a1 1 0 0 1 1-1h3a3 3 0 0 1 3 3v1a1 1 0 1 1-2 0V6a1 1 0 0 0-1-1h-3a1 1 0 0 1-1-1m6 12a1 1 0 0 1 1 1v1a3 3 0 0 1-3 3h-3a1 1 0 1 1 0-2h3a1 1 0 0 0 1-1v-1a1 1 0 0 1 1-1M9 11a1 1 0 1 0 0 2h.001a1 1 0 1 0 0-2z" clip-rule="evenodd"></path>
      <path stroke="currentColor" stroke-linecap="round" stroke-linejoin="round" stroke-width="2" d="M16 12h5m0 0l-2-2m2 2l-2 2"></path>
    </g>
  </symbol>
  <!-- Next page icon -->
  <symbol viewBox="0 0 24 24" id="right-page">
    <path fill="currentColor" d="m12 16l4-4l-4-4l-1.4 1.4l1.6 1.6H8v2h4.2l-1.6 1.6zm0 6q-2.075 0-3.9-.788t-3.175-2.137T2.788 15.9T2 12t.788-3.9t2.137-3.175T8.1 2.788T12 2t3.9.788t3.175 2.137T21.213 8.1T22 12t-.788 3.9t-2.137 3.175t-3.175 2.138T12 22m0-2q3.35 0 5.675-2.325T20 12t-2.325-5.675T12 4T6.325 6.325T4 12t2.325 5.675T12 20m0-8"></path>
  </symbol>
  <!-- Previous page icon -->
  <symbol viewBox="0 0 24 24" id="left-page">
    <path fill="currentColor" d="M11.8 13H15q.425 0 .713-.288T16 12t-.288-.712T15 11h-3.2l.9-.9q.275-.275.275-.7t-.275-.7t-.7-.275t-.7.275l-2.6 2.6q-.3.3-.3.7t.3.7l2.6 2.6q.275.275.7.275t.7-.275t.275-.7t-.275-.7zm.2 9q-2.075 0-3.9-.788t-3.175-2.137T2.788 15.9T2 12t.788-3.9t2.137-3.175T8.1 2.788T12 2t3.9.788t3.175 2.137T21.213 8.1T22 12t-.788 3.9t-2.137 3.175t-3.175 2.138T12 22"></path>
  </symbol>
  <!-- add product icon -->
  <symbol viewBox="0 0 24 24" id="add">
    <path fill="currentColor" d="M11 17h2v-4h4v-2h-4V7h-2v4H7v2h4zm1 5q-2.075 0-3.9-.788t-3.175-2.137T2.788 15.9T2 12t.788-3.9t2.137-3.175T8.1 2.788T12 2t3.9.788t3.175 2.137T21.213 8.1T22 12t-.788 3.9t-2.137 3.175t-3.175 2.138T12 22"></path>
  </symbol>
  <!-- bill icon -->
  <symbol viewBox="0 0 24 24" id="bill">
    <path fill="currentColor" fill-rule="evenodd" d="M2 1.25a.75.75 0 0 0 0 1.5h2v9.527c0 1.34 0 2.01.268 2.601s.772 1.032 1.781 1.915l2 1.75c1.883 1.647 2.824 2.47 3.951 2.47s2.069-.823 3.951-2.47l2-1.75c1.008-.883 1.513-1.324 1.78-1.915c.269-.59.269-1.26.269-2.6V2.75h2a.75.75 0 0 0 0-1.5zm6.5 11a.75.75 0 0 0 0 1.5h7a.75.75 0 0 0 0-1.5zM7.75 8a.75.75 0 0 1 .75-.75h7a.75.75 0 0 1 0 1.5h-7A.75.75 0 0 1 7.75 8" clip-rule="evenodd"></path>
  </symbol>
  <!-- delete item -->
  <symbol viewBox="0 0 24 24" id="delete-item">
    <path fill="currentColor" d="M6 19c0 1.1.9 2 2 2h8c1.1 0 2-.9 2-2V7H6zm2.46-7.12l1.41-1.41L12 12.59l2.12-2.12l1.41 1.41L13.41 14l2.12 2.12l-1.41 1.41L12 15.41l-2.12 2.12l-1.41-1.41L10.59 14zM15.5 4l-1-1h-5l-1 1H5v2h14V4z"></path>
  </symbol>
  <!-- edit item -->
  <symbol viewBox="0 0 24 24" id="edit-item">
    <path fill="currentColor" d="M9 15v-4.25l9.175-9.175q.3-.3.675-.45t.75-.15q.4 0 .763.15t.662.45L22.425 3q.275.3.425.663T23 4.4t-.137.738t-.438.662L13.25 15zm10.6-9.2l1.425-1.4l-1.4-1.4L18.2 4.4zM5 21q-.825 0-1.412-.587T3 19V5q0-.825.588-1.412T5 3h8.925L7 9.925V17h7.05L21 10.05V19q0 .825-.587 1.413T19 21z"></path>
  </symbol>
</svg>
